<?xml version="1.0" encoding="UTF-8"?><svg id="Layer_1" xmlns="http://www.w3.org/2000/svg" viewBox="0 0 220.69 300">
<desc>Free vector and PNG brand logos at https://brandlogos.net</desc>
<defs><style>.cls-1,.cls-2{fill:#22558c;}.cls-2{fill-rule:evenodd;}.cls-3{fill:#fed32c;}</style></defs><g id="g29"><path id="path1" class="cls-1" d="M188.36,111.64c-19.97-19.97-47.54-32.33-78.01-32.33s-58.05,12.36-78.01,32.33C12.36,131.61,0,159.18,0,189.66s12.36,58.05,32.33,78.01,47.54,32.33,78.01,32.33,58.05-12.36,78.01-32.33,32.33-47.54,32.33-78.01c-.04-30.47-12.36-58.05-32.33-78.01Z"/><path id="path2" class="cls-3" d="M110.34,83.37c14.31,0,28.01,2.85,40.58,8.08,13.05,5.4,24.77,13.31,34.53,23.04,9.77,9.77,17.63,21.48,23.04,34.53,5.19,12.58,8.08,26.28,8.08,40.58s-2.85,28.01-8.08,40.58c-5.4,13.05-13.31,24.77-23.04,34.53-9.77,9.77-21.48,17.63-34.53,23.04-12.58,5.19-26.28,8.08-40.58,8.08s-28.05-2.85-40.58-8.08c-13.05-5.4-24.77-13.31-34.53-23.04-9.77-9.77-17.63-21.48-23.04-34.53-5.19-12.58-8.08-26.28-8.08-40.58s2.85-28.05,8.08-40.58c5.4-13.05,13.31-24.77,23.04-34.53,9.77-9.77,21.48-17.63,34.53-23.04,12.53-5.19,26.28-8.08,40.58-8.08h0Z"/><path id="path3" class="cls-1" d="M199.42,152.79c-4.88-11.8-12.06-22.43-20.92-31.29s-19.49-16.04-31.29-20.92c-11.37-4.71-23.82-7.3-36.82-7.3s-25.5,2.59-36.82,7.3c-11.8,4.88-22.43,12.06-31.29,20.92-8.9,8.86-16.04,19.49-20.92,31.29-4.8,11.37-7.39,23.82-7.39,36.87s2.59,25.5,7.3,36.82c4.88,11.8,12.06,22.43,20.92,31.29,8.9,8.86,19.49,16.04,31.29,20.92,11.37,4.71,23.82,7.3,36.82,7.3s25.5-2.59,36.82-7.3c11.8-4.88,22.43-12.06,31.29-20.92,8.86-8.9,16.04-19.49,20.92-31.29,4.71-11.37,7.3-23.82,7.3-36.82.09-13.05-2.51-25.5-7.22-36.87h0Z"/><circle id="ellipse3" class="cls-3" cx="110.35" cy="189.65" r="65.26"/><path id="path4" class="cls-2" d="M56.27,161.04l3.93,3.24,2.07-3.46c.43,3.63,1.56,6.05,2.85,8,1.69,2.55,3.8,3.41,4.62,6.44.3,1.12,2.16,3.5,4.28,5.45,2.68,2.42,4.54,3.46,5.96,4.5v3.63c-1.34,1.77-2.77,3.85-.82,5.53,1.43,1.25,2.16,1.34,4.45,1.86v3.2c1.3,1.12,1.64,1.77,2.42,3.67.69,1.64,1.34,3.28,1.86,5.32,1.9.56,3.5,1.34,5.19,3.03v8.51l2.46,1.34c.17,4.5,2.03,5.1,3.07,7.65,2.25-.52,4.54-.82,6.79-.78v-1.86c2.25-.09,2.98-.48,4.24-.91,3.37-1.12,3.63-2.07,5.62-3.16,1.9-1.08,4.41-1.6,6.74-2.85,1.73-.91,4.67-2.72,6.74-4.02,1.51-.95,2.77-1.6,3.33-2.94.22-.56.22-1.21.22-2.16,1.94-.04,3.41-.26,4.67-1.12,1.12-.78,1.77-.91,3.2-1.34v-2.59h2.2c.52-1.51.91-2.33,1.99-2.94.56-.35,1.12-.61,1.77-.86,1.43-.61,1.04-2.98,3.37-3.07l1.04-8.6,5.83-1.12v-8.64c-1.47-.82-1.82-1.86-3.41-2.42-1.86-.61-4.24-.99-6.53-1.38-3.24-.56-3.72-2.07-3.8-3.5-.04-.73-.17-1.64-.91-2.12-.73-.43-.73-.35-1.47-.82-1.43-.86-2.03.43-3.67,1.51-1.08.73.09,2.29-1.04,3.63-1.21,1.38-7.05,1.38-8.73,1.69-.82-1.25-.95-1.77-1.34-3.2-.35-1.34-.09-2.2-2.25-2.2-1.12,0-1.69.22-2.42.73,0-1.94-.04-3.54-1.99-5.83-.43-.52-2.25-1.94-2.64-2.51-.78-1.08-.78-1.34-1.17-2.12-.22-.35-.69-.91-1.43-.91-.48,0-.61-.61-.69-1.38-.13-1.69-1.34-2.03-2.03-3.37l3.2-.22-.04-3.24,5.32.56c.22,2.38.86,3.85,1.82,5.45,1.34,2.2,1.99,1.25,2.94,1.94.65.48.91,1.38,1.6,1.82.52.3,1.69.26,2.25.52.73.35,1.08,1.25,1.82,1.51,2.64.99,5.27.95,8.04.95,1.64,0,3.2-2.2,4.8-1.77,1.86.52,1.69,1.64,2.51,2.59.43.52.91,1.12,1.47,1.47.86.52,2.12.78,3.63.78,2.12,0,2.94-1.12,6.14-1.21.56-1.17.91-4.02,1.04-5.58,4.88,10.07,6.14,17.94,6.01,26.67-.17,11.11-3.03,21.18-8.64,30.04-5.75,9.12-14.39,16.94-25.98,22.3v-8.04c-1.08-1.64-1.25-1.82-8.64-.99-2.07.22-4.19.73-5.75,1.56-2.2,1.12-3.72,2.59-6.74,2.59-1.43,0-3.8,2.68-7.22,2.16v-4.19c-1.82-.35-3.89-.3-5.92-1.64l.69-4.24c-2.33-1.25-3.63-2.03-4.84-6.05h-2.03c-1.73-1.38-4.54-2.64-6.22-4.32-.22-.22-1.56-2.03-2.03-2.72l-.22-7.22c-1.6-1.21-4.54-2.07-6.61-5.32-1.12-1.77-1.17-4.97-1.47-6.92-.35-2.12-2.03-6.83-3.33-7.22-.95-.26-1.64-.95-2.29-1.77-.86-1.08-1.3-1.56-1.69-2.16l-.82-9.38-4.37-2.98.82-4.19-3.8-6.27Z"/><g id="g28"><path id="path5" class="cls-2" d="M94.27,160.52c-1.82.04-3.33-.26-4.67-.82l-5.19,3.63c-2.38,1.69-4.8-.13-4.97-4.8-1.64,3.76-.65,5.53.69,6.7,1.3,1.17,3.98,2.42,7.3.09l29.52,42.05,11.02-7.78c-1.86-.04-3.5-.22-4.75-.78l-5.45,3.85-3.24-4.62c3.03-1.94,3.98-5.92,1.82-9.08l-7.95-11.28,2.9-2.03c-1.94.22-3.54-.04-4.84-.73l-5.45,3.85-10.81-15.39,4.06-2.85ZM102.95,181.53l2.72-1.9,8.04,11.41c1.38,1.99.3,3.33-1.08,4.19l-9.68-13.7Z"/><path id="path6" class="cls-2" d="M131.09,192.98c1.17,0,2.07.91,2.07,2.07s-.91,2.07-2.07,2.07-2.07-.91-2.07-2.07.95-2.07,2.07-2.07Z"/></g><path id="path7" class="cls-1" d="M164.07,49.53h0c5.96-7.91,3.5-16.08.26-20.49-3.5-4.75-12.92-9.42-20.62-6.92-1.04-1.47-2.9-1.21-3.72.3-2.81-4.75-7.95-7-13.96-6.92-3.5.04-7.43.91-11.89,2.59-.65-1.38-1.51-3.07-2.72-5.23l2.46-4.97.26-.52-.26-.52-2.55-4.88-.99-1.99-1.04,1.99-2.55,4.88-.26.52.26.52,2.46,4.97c-1.21,2.2-2.07,3.85-2.72,5.23-4.45-1.69-8.38-2.55-11.89-2.59-6.01-.04-11.15,2.2-13.96,6.92-.82-1.51-2.64-1.77-3.72-.3-7.69-2.51-17.12,2.16-20.62,6.92-3.2,4.41-5.66,12.58.3,20.44h-.04c-1.38.95-1.82,2.03-2.72,3.33,1.82-.17,3.5-.39,5.14.65.86.56,1.3,1.3,1.99,2.42-1.3.99-1.17,5.45,2.72,4.41,1.25,1.6,2.55,2.72,3.89,3.59,1.25.82,2.64,1.21,3.8,1.3-.26.13-.48.3-.65.56-.17.3-.26.69-.17,1.08s.35.69.65.91c.3.17.69.26,1.08.17.26-.04.52-.13.73-.17l.52,1.17-2.64,2.9,4.45,1.3.3.69c-.09.04-.17.09-.22.17-.22.17-.39.35-.56.52-.26.35-.39.78-.3,1.17,0,.09.04.22.09.3s.09.13.13.22c.56.73,1.43.61,2.64.39.26-.04.52-.09.82-.13,1.17-.17,2.46-.35,3.5-.52,1.21-.17,2.29-.35,2.64-.39,3.11-.52,7.3-.91,11.63-1.17,4.88-.3,10.07-.48,14.26-.48s9.34.17,14.26.48c4.37.26,8.51.69,11.63,1.17.35.04,1.43.22,2.64.39,1.04.17,2.33.35,3.5.52.3.04.56.09.82.13,1.21.22,2.07.35,2.64-.39.04-.09.09-.13.13-.22s.09-.22.09-.3c.09-.39-.04-.82-.3-1.17-.13-.17-.35-.35-.56-.52-.09-.04-.13-.09-.22-.17l.3-.69,4.45-1.3-2.64-2.9.52-1.17c.26.04.48.13.73.17.39.09.78.04,1.08-.17.3-.17.56-.52.65-.91s.04-.78-.17-1.08c-.13-.26-.35-.43-.65-.56,1.17-.09,2.55-.48,3.8-1.3,1.3-.82,2.64-1.94,3.89-3.59,3.89,1.04,4.02-3.41,2.72-4.41.69-1.17,1.12-1.9,1.99-2.42,1.64-1.04,3.33-.82,5.14-.65-.82-1.25-1.3-2.33-2.68-3.28h0ZM158.58,27.88c3.33,2.68,6.27,8.77,1.51,15.39l1.47,5.92c-.43.17-.82.43-1.12.69-.13-.69-.39-1.34-.69-1.82-1.56,1.04-2.29,1.86-3.28,4.28-.26-.3-.52-.56-.82-.78-.65-.43-1.6-.52-2.33-.48-1.04.04-1.34-.99-1.6-1.82-.91.35-.95,1.43-.52,2.55-1.04.43-2.33,1.04-3.33,1.56l.95.91c.69.82,1.69,1.56,2.59,2.29-.91.39-1.04.09-1.99-.04-.22,1.34,1.73,2.72,4.15,2.25-.39.52-.69,1.04-1.21,1.43-1.25,1.04-2.55,1.73-3.63,1.69-.95,0-1.6-.95-2.07-1.77.52-.13.99-.39,1.34-.78.48-.52.73-1.21.73-1.99s-.3-1.47-.73-1.94c-.48-.52-1.17-.86-1.94-.86s-1.43.35-1.94.86c-.48.52-.73,1.21-.73,1.94,0,.56.17,1.12.43,1.56-.99.69-2.2,1.47-3.33,1.47-1.04,0-2.07-.95-2.64-1.77-.61-.86-.95-2.12-.91-3.41,0-.17,0-.35.04-.52.17.52,1.34.48,2.03.48,1.56,0,1.99.39,2.68,2.25.82-1.21.73-2.68.17-3.89,2.2.17,2.98-.52,4.28-1.43-1.99-.56-2.38-1.86-3.63-2.9.52-.73.82-1.47.95-2.16-1.08.09-2.16.22-3.24.3.26-1.9,1.25-2.59,2.81-3.59-1.3-.73-2.38-.99-3.89-.13-.13-1.34-.61-2.55-1.21-3.67,2.77-3.98,4.28-7.91,3.76-12.84,7.91-3.16,13.87-1.69,16.9.78h0ZM110.34,66.17h3.67c.48,0,.86.39.86.86s-.39.86-.86.86h-7.35c-.48,0-.86-.39-.86-.86s.39-.86.86-.86h3.67ZM101.83,67.08c0,.95-.69,1.69-1.56,1.69s-1.56-.78-1.56-1.69.69-1.69,1.56-1.69,1.56.73,1.56,1.69ZM95.69,67.64c.09.48-.26.91-.73.99l-5.79.86c-.48.09-.91-.26-.99-.73-.09-.48.26-.91.73-.99l5.79-.86c.48-.04.91.26.99.73ZM84.71,69.2c0,.95-.69,1.69-1.56,1.69s-1.56-.78-1.56-1.69.69-1.69,1.56-1.69,1.56.73,1.56,1.69ZM118.86,67.08c0-.95.69-1.69,1.56-1.69s1.56.78,1.56,1.69-.69,1.69-1.56,1.69-1.56-.73-1.56-1.69ZM125,67.64c.09-.48.52-.82.99-.73l5.79.86c.48.09.82.52.73.99-.09.48-.52.82-.99.73l-5.79-.86c-.48-.09-.78-.52-.73-.99ZM135.97,69.2c0-.95.69-1.69,1.56-1.69s1.56.78,1.56,1.69-.69,1.69-1.56,1.69-1.56-.73-1.56-1.69ZM105.55,20.79c-.48,1.73-.56,3.37-.52,5.71h0v.43c.04,2.51.09,4.97-1.25,6.66l-.48.56.39.61,2.46,4.06c-.61-.09-1.34.09-2.25.56,1.6.61.35,1.82.35,2.68-1.94.04-2.98.13-4.41-.52-.04,1.69.04,2.38.99,3.8.09.17.22.3.35.48-1.47.95-1.34,1.47-3.11,1.86.43,1.47,1.08,2.59,3.28,2.81-.43.99-.56,2.07-.52,3.2,1.17-.3,1.47-1.51,2.25-1.82,1.73-.69,3.46-.13,5.14-.69.78,3.41-2.29,6.79-4.75,6.83-1.43.04-3.37-1.34-4.71-3.07.35-.48.61-1.08.61-1.77,0-.78-.3-1.47-.73-1.94-.48-.52-1.17-.86-1.94-.86s-1.43.35-1.94.86c-.48.52-.73,1.21-.73,1.94,0,.78.3,1.47.73,1.99.3.3.65.56,1.04.69-.86,1.12-1.34,1.6-2.2,2.12-.86.52-1.77.78-2.46.73-1.04,0-2.2-.65-3.11-1.73-.56-.69-1.12-1.69-1.3-2.94.73,0,1.56-.09,2.25-.17,1.82-.26,2.07-.65,3.8.65-.13-1.3-.13-2.29-.82-3.16.86-.13,1.82-.43,2.55-1.51l.99-1.56c-.65-.17-1.21-.04-1.82-.04-.35-.09-.69-.35-1.08-.52-.43-.22-.82-.52-1.34-.69.43-.95.52-2.85-.65-3.8-.52,1.77-1.12,2.12-2.68,2.12-.09-1.56.26-2.81.78-4.24-1.47-.17-2.46.43-3.16,1.69-.26-.69-.56-1.3-.86-1.9l1.9-3.28c-5.96-7.56-3.03-14.05.3-16.86,3.2-2.64,9.38-3.8,18.67.04h0ZM133.77,20.79c3.33,2.77,6.27,9.29.3,16.86l1.9,3.28c-.3.61-.61,1.21-.86,1.9-.65-1.25-1.69-1.86-3.16-1.69.52,1.43.86,2.68.78,4.24-1.56-.04-2.16-.35-2.68-2.12-1.17.95-1.08,2.85-.65,3.8-.52.17-.91.48-1.34.69-.39.17-.73.48-1.08.52-.61-.04-1.17-.13-1.82.04l.99,1.56c.73,1.08,1.69,1.38,2.55,1.51-.65.82-.65,1.82-.82,3.16,1.73-1.3,1.99-.91,3.8-.65.69.09,1.51.17,2.25.17-.17,1.3-.73,2.25-1.3,2.94-.91,1.12-2.07,1.73-3.11,1.73-.69,0-1.6-.22-2.46-.73s-1.34-.99-2.2-2.12c.39-.13.78-.39,1.04-.69.48-.52.73-1.21.73-1.99s-.3-1.47-.73-1.94c-.48-.52-1.17-.86-1.94-.86s-1.43.35-1.94.86c-.48.52-.73,1.21-.73,1.94,0,.65.22,1.25.61,1.77-1.3,1.73-3.28,3.11-4.71,3.07-2.46-.09-5.53-3.46-4.75-6.83,1.73.61,3.46,0,5.14.69.73.3,1.04,1.51,2.25,1.82.09-1.12-.04-2.2-.48-3.2,2.2-.26,2.85-1.34,3.28-2.81-1.77-.39-1.6-.91-3.11-1.86.13-.13.22-.3.35-.48.95-1.43,1.04-2.12.99-3.8-1.47.65-2.46.56-4.41.52,0-.86-1.25-2.07.35-2.68-.95-.48-1.69-.61-2.25-.56l2.46-4.06.39-.61-.48-.56c-1.34-1.64-1.3-4.11-1.25-6.66v-.43h0c.04-2.38-.04-3.98-.52-5.71,9.29-3.89,15.47-2.72,18.63-.04h0ZM136.1,48.45c.82,0,1.47.69,1.47,1.56s-.65,1.56-1.47,1.56-1.47-.69-1.47-1.56c-.04-.86.65-1.56,1.47-1.56ZM110.34,24.38c-.78,0-1.38-.61-1.38-1.38,0-.73.61-1.38,1.38-1.38.73,0,1.38.61,1.38,1.38s-.65,1.38-1.38,1.38ZM110.34,30.9c.73,0,1.38.61,1.38,1.38,0,.73-.61,1.38-1.38,1.38s-1.38-.61-1.38-1.38.61-1.38,1.38-1.38ZM110.34,45.21c.82,0,1.47.69,1.47,1.56s-.65,1.56-1.47,1.56-1.47-.69-1.47-1.56.65-1.56,1.47-1.56ZM86.1,50.01c0,.86-.65,1.56-1.47,1.56s-1.47-.69-1.47-1.56.65-1.56,1.47-1.56c.78,0,1.47.69,1.47,1.56ZM94.91,60.81c.91-.48,1.77-1.12,2.59-1.94.73.65,1.56,1.17,2.29,1.56.56.3,1.12.52,1.69.65-.52,0-1.04.04-1.56.09-2.42.13-4.8.3-7.17.52.73-.17,1.43-.48,2.16-.86h0ZM107.58,59.78c.99-.65,1.94-1.56,2.77-2.59.82,1.04,1.82,1.94,2.77,2.59.78.56,1.56.95,2.38,1.21-1.73-.04-3.41-.04-5.14-.04s-3.41,0-5.14.04c.78-.3,1.56-.69,2.38-1.21ZM120.89,60.42c.73-.39,1.56-.91,2.29-1.56.82.82,1.69,1.47,2.59,1.94.73.39,1.43.65,2.12.82-2.38-.22-4.8-.39-7.17-.52-.52-.04-1.04-.04-1.56-.09.61-.09,1.17-.3,1.73-.61h0ZM76.55,62.71c.99.43,1.86.69,2.68.82-1.47.26-2.94.56-4.37.91.56-.48,1.21-1.08,1.69-1.73ZM85.58,59.82c.52.52.91.95,1.47,1.3.91.56,2.12.78,3.24.82-.13,0-.22.04-.35.04-2.55.26-5.01.61-7.48.99,1.21-.61,2.2-1.69,3.11-3.16h0ZM133.64,61.12c.56-.35.95-.78,1.47-1.3.91,1.47,1.94,2.55,3.16,3.16-2.46-.39-4.97-.73-7.48-.99-.13,0-.22-.04-.35-.04,1.04-.09,2.29-.3,3.2-.82h0ZM144.14,62.71c.48.65,1.12,1.25,1.69,1.69-1.43-.3-2.9-.61-4.37-.91.82-.09,1.69-.35,2.68-.78h0ZM78.92,27.19c-.52,4.93.99,8.82,3.76,12.84-.61,1.17-1.08,2.33-1.21,3.67-1.51-.86-2.59-.61-3.89.13,1.56.99,2.55,1.69,2.81,3.59-1.08-.09-2.16-.22-3.24-.3.13.73.43,1.47.95,2.16-1.25,1.04-1.6,2.33-3.63,2.9,1.3.91,2.07,1.6,4.28,1.43-.56,1.25-.65,2.68.17,3.89.69-1.9,1.12-2.25,2.68-2.25.69,0,1.86.04,2.03-.48,0,.17.04.35.04.52,0,1.3-.3,2.55-.91,3.41-.56.82-1.6,1.77-2.64,1.77-1.12,0-2.33-.78-3.33-1.47.3-.43.43-.99.43-1.56,0-.78-.3-1.47-.73-1.94-.48-.52-1.17-.86-1.94-.86s-1.43.35-1.94.86c-.48.52-.73,1.21-.73,1.94,0,.78.3,1.47.73,1.99.35.39.82.69,1.34.78-.48.82-1.12,1.77-2.07,1.77-1.12,0-2.38-.65-3.63-1.69-.48-.39-.82-.91-1.21-1.43,2.42.43,4.37-.95,4.15-2.25-.95.09-1.08.43-1.99.04.91-.73,1.9-1.51,2.59-2.29l.95-.91c-.99-.56-2.25-1.17-3.33-1.56.43-1.12.43-2.2-.52-2.55-.26.82-.56,1.86-1.6,1.82-.73-.04-1.69,0-2.33.48-.3.22-.56.48-.82.78-.99-2.42-1.69-3.24-3.28-4.28-.3.52-.52,1.12-.69,1.82-.3-.26-.69-.52-1.12-.69l1.47-5.92c-4.75-6.61-1.82-12.66,1.51-15.39,3.11-2.55,9.08-4.02,16.9-.78h0ZM63.23,59.26c-.52.26-1.17-.04-1.51-.69-.3-.65-.17-1.38.35-1.64.52-.26,1.17.04,1.51.69.3.69.17,1.43-.35,1.64ZM73.65,71.06l1.47-1.6,2.46.43-1.56,1.86-2.38-.69ZM144.62,71.75l-1.56-1.86,2.46-.43,1.47,1.6-2.38.69ZM158.97,58.57c-.3.65-.99.95-1.51.69s-.65-.99-.35-1.64.99-.95,1.51-.69.65.99.35,1.64Z"/><g id="g27"><path id="path8" class="cls-3" d="M56.49,240.35c-1.08-1.43-4.8-4.15-8.51-1.21-3.76,2.94-2.64,6.83-1.34,8.64s5.53,4.32,9.03.95c3.46-3.33,1.9-6.96.82-8.38h0ZM53.81,246.1c-2.64,2.38-5.27,3.03-6.57,1.21s.43-3.98,2.94-5.83,4.41-2.07,5.53-.73c1.08,1.34.73,2.98-1.9,5.36h0Z"/><path id="path9" class="cls-3" d="M80.87,263.26l1.6-2.85-9.72-5.36-1.6,2.85.78.43c.82-.73,1.94-1.77,2.94-1.21l1.12.65-4.54,8.26c-.26.43-.61.39-1.77-.26l-.43.78,5.49,3.03.43-.78c-1.25-.69-1.38-.95-1.08-1.51l4.5-8.13,1.17.65c.95.52.78,1.86.52,3.11l.61.35Z"/><path id="path10" class="cls-3" d="M134.51,269.96c-.22,2.07-.48,3.16-2.12,3.59l-1.77.48c-.35.09-.78-.09-.91-.56l-2.12-8.04c-.22-.78.26-1.12,1.47-1.43l-.22-.73-6.09,1.6.22.73c1.17-.3,1.64-.22,1.82.39l2.16,8.17c.26.91-.52,1.04-1.38,1.25l.22.82,10.16-2.68-.86-3.72-.56.13Z"/><path id="path11" class="cls-3" d="M164.37,251.72c.69,1.94.99,3.03-.35,4.19l-1.38,1.21c-.26.22-.73.3-1.08-.13l-5.45-6.31c-.52-.61-.22-1.12.69-1.9l-.52-.56-4.75,4.11.52.56c.91-.78,1.38-.91,1.77-.43l5.53,6.4c.61.73,0,1.12-.69,1.73l.56.65,7.95-6.87-2.42-2.94-.39.3Z"/><path id="path12" class="cls-3" d="M174.18,240.61l-4.62-3.76c-.69-.56-.56-1.25.3-2.33l-.65-.52-3.11,3.85.65.52c.78-.95,1.51-1.08,1.94-.73l4.8,3.93c1.38,1.12,1.51,2.77.43,4.11-.91,1.08-2.42,1.6-4.02.3l-4.97-4.02c-.48-.39-.48-.78.3-1.73l-.65-.56-3.76,4.62.65.52c.78-.95,1.25-.86,1.77-.43l4.71,3.85c2.55,2.07,4.84.43,6.66-1.69,1.04-1.17,1.9-4.02-.43-5.92Z"/><path id="path13" class="cls-3" d="M106.11,275.23l-2.64-9.72-1.77-.22-4.97,9.29c-.39.73-.78.95-2.03.78l-.09.86,4.67.52.09-.86c-1.73-.22-2.03-.48-1.73-1.08l1.08-2.03,3.93.43.61,2.12c.39,1.25-.56.95-1.51.86l-.09.86,6.22.69.09-.86c-1.34-.13-1.64-.82-1.86-1.64h0ZM99.19,271.99l2.03-3.8,1.21,4.15-3.24-.35Z"/><path id="path14" class="cls-3" d="M153.57,261.14c0,2.38-.82,3.41-2.03,4.06-1.99,1.04-4.06-.48-5.62-3.2-1.56-2.72-.99-4.97.13-5.62,1.04-.61,2.85-.99,5.1,1.47l.61-.39-2.38-3.59-.65.48.3.52c-1.77-.04-2.77.3-3.41.69-.56.3-1.43.91-1.99,1.82-.91,1.47-1.73,4.24-.26,6.57,1.47,2.42,3.41,3.33,5.27,3.33,2.16,0,3.5-.91,4.71-2.25.95-1.04.99-2.55.86-3.89h-.65Z"/><path id="path15" class="cls-3" d="M121.15,273.16c-.61,1.99-1.04,3.03-2.77,3.16l-1.86.13c-.35.04-.73-.22-.78-.73l-.61-8.3c-.04-.82.48-1.04,1.69-1.12l-.04-.78-6.27.43.04.78c1.21-.09,1.64.09,1.69.69l.61,8.43c.09.95-.69.91-1.6.95l.04.82,10.5-.73-.17-3.8-.48.09Z"/><path id="path16" class="cls-3" d="M66.86,250.25c-1.34-1.21-5.49-3.2-8.6.43-3.11,3.59-1.3,7.22.3,8.77s6.27,3.2,9.03-.73c2.81-3.98.56-7.26-.73-8.47ZM65.31,256.43c-2.16,2.81-4.62,3.93-6.22,2.42-1.6-1.56-.35-3.98,1.77-6.27s3.93-2.85,5.27-1.77c1.34,1.12,1.34,2.81-.82,5.62h0Z"/><path id="path17" class="cls-3" d="M90.55,263.09l-6.31-2.07-.26.78c1.17.39,1.43.73,1.21,1.38l-2.59,7.87c-.17.56-.61.69-1.77.3l-.26.78,6.31,2.07c2.38.78,4.8,0,5.27-1.73.61-2.03-.48-2.98-2.25-4.02,2.03-.04,3.24-.78,3.46-1.77.35-1.6-.17-2.68-2.81-3.59h0ZM89.21,271.08c-.3,1.3-1.43,2.55-2.94,2.03l-1.17-.39,1.56-4.75.91.3c1.34.43,1.9,1.69,1.64,2.81ZM90.29,265.73c-.3,1.17-1.73,2.03-2.55,1.73l-.82-.26,1.34-4.02.69.22c.82.3,1.6,1.3,1.34,2.33h0Z"/><path id="path18" class="cls-3" d="M46.77,233.18c-1.12.65-1.82.69-2.42-.35l-.69-1.21,3.93-2.29,1.47,2.51c.61.82-.13,1.9-.95,2.81l.48.86,2.72-1.56-5.14-8.9-.78.48c.82,1.38.61,1.51-.04,1.9l-7.3,4.24c-.56.3-.78-.09-1.34-1.08l-.78.48,3.03,5.23.78-.48c-.48-.82-.61-1.47-.13-1.77l3.54-2.07.69,1.21c.56.95.13,1.69-1.04,2.33l.39.69,4.06-2.33-.48-.69Z"/><path id="path19" class="cls-3" d="M182.83,226.83c-1.86-.95-3.03-.09-4.37,1.47.35-1.99-.17-3.33-1.12-3.72-1.47-.65-2.64-.35-4.02,2.12l-3.2,5.79.69.39c.61-1.08.99-1.25,1.6-.95l7.26,4.02c.52.3.56.69-.04,1.82l.69.39,3.24-5.79c1.17-2.2.86-4.75-.73-5.53h0ZM177.12,230.24l-.43.78-3.72-2.07.35-.65c.43-.78,1.56-1.34,2.55-.91,1.08.48,1.64,2.07,1.25,2.85h0ZM182.35,232.7l-.61,1.08-4.37-2.42.48-.82c.69-1.25,1.99-1.6,3.07-1.12,1.21.56,2.2,1.9,1.43,3.28h0Z"/></g><g id="g26"><path id="path20" class="cls-3" d="M84.84,106.93l2.16,9.94c.3,1.43.3,3.03-2.46,3.63l.26,1.17,7.87-1.69-.26-1.17c-2.38.52-3.46-.69-3.8-2.33l-2.12-9.81,14.44,11.45,2.33-.52-3.2-14.7c-.35-1.51.09-2.68,2.46-3.2l-.26-1.17-7.69,1.69.26,1.17c2.33-.52,3.33.65,3.59,1.69l1.9,8.69-12.62-10.03-6.87,1.47.26,1.17c2.51-.52,3.46,1.25,3.76,2.55h0Z"/><path id="path21" class="cls-3" d="M113.89,116.44c-2.81-.3-3.37-.69-2.81-1.77l1.73-3.33,6.44.65,1.04,3.41c.65,2.07-.86,1.56-2.46,1.43l-.13,1.38,10.24,1.04.13-1.38c-2.25-.22-2.77-1.38-3.11-2.68l-4.5-15.95-2.9-.3-7.95,15.34c-.65,1.25-1.25,1.56-3.33,1.34l-.13,1.38,7.69.78.04-1.34ZM116.74,103.73l2.07,6.79-5.32-.52,3.24-6.27Z"/><path id="path22" class="cls-3" d="M148.34,120.98l-3.89,5.4,1.3.91.52-.69c1.9,3.2,4.37,5.75,7.56,6.61,3.5.91,6.66-1.04,7.35-3.67.69-2.68-.95-4.67-2.2-6.61-.86-1.3-2.77-3.24-2.25-5.14.35-1.25,2.25-2.07,3.5-1.73,2.12.56,3.98,3.41,2.25,8.47l.91.69,3.8-5.27-1.3-.91-.56.78c-1.04-2.51-3.67-5.19-6.31-5.88-3.63-.95-6.53.99-7.17,3.5-.86,3.24,1.21,5.27,2.9,7.69.82,1.17,1.82,2.59,1.43,4.06-.35,1.3-1.94,2.29-3.5,1.86-3.2-.86-4.75-4.58-3.33-9.34l-.99-.73Z"/><path id="path23" class="cls-3" d="M48.62,151.62l1.08.86,4.8-6.05-1.12-.86c-1.77,2.2-2.42,2.46-3.03,1.43l-1.86-3.24,4.02-5.1,3.46.95c2.07.61.86,1.6-.13,2.85l1.12.86,6.4-8.04-1.12-.86c-1.43,1.77-2.64,1.6-3.98,1.17l-15.86-4.8-1.82,2.29,8.64,15c.73,1.21.69,1.9-.61,3.54h0ZM44.26,136.32l6.83,1.9-3.33,4.19-3.5-6.09Z"/><path id="path24" class="cls-3" d="M145.14,118.43c0-2.77-2.07-4.28-3.8-5.83-1.17-1.04-3.5-2.46-3.46-4.41,0-1.3,1.69-2.55,2.98-2.55,2.2,0,4.67,2.29,4.32,7.61l1.08.43,2.33-6.05-1.47-.56-.35.91c-1.64-2.16-4.84-4.11-7.56-4.11-3.72,0-6.05,2.59-6.09,5.19-.04,3.33,2.46,4.8,4.71,6.74,1.08.95,2.42,2.07,2.38,3.59-.04,1.34-1.3,2.68-2.94,2.68-3.33,0-5.75-3.24-5.58-8.21l-1.08-.43-2.42,6.18,1.47.56.3-.82c2.64,2.64,5.66,4.45,8.99,4.5,3.63,0,6.18-2.68,6.18-5.4h0Z"/><path id="path25" class="cls-3" d="M173.06,129.45l-11.32,8.43c-.78.48-1.08.13-2.38-1.69l-.86.65,6.05,8.13.86-.65c-.99-1.34-1.47-2.16-.65-2.72l5.1-3.76.22.3c.22.26.22.69.09.99l-2.9,9.47,4.19,5.66.86-.65c-.99-1.73-.82-2.03-.56-3.2l2.2-8.43c2.77,2.03,5.71,1.73,7.35,0,1.38-1.47,1.56-4.02-.52-6.83l-7.13-9.55-1.12.82c1.12,1.56,1.51,2.29.52,3.03h0ZM178.37,134.33c.99,1.34.35,2.94-.95,4.06-1.56,1.38-4.15,1.94-5.19.52l-1.38-1.9,6.14-4.58,1.38,1.9Z"/><path id="path26" class="cls-3" d="M56.45,120.46l8,11.02c.91,1.25-.17,1.82-1.38,2.72l.78,1.08,14.05-10.2-3.46-5.06-.69.56c.82,3.24,1.12,5.06-1.21,6.74l-2.46,1.82c-.48.35-1.21.35-1.73-.35l-7.87-10.85c-.78-1.08-.22-1.86,1.43-3.03l-.73-.99-8.43,6.09.73.99c1.6-1.21,2.38-1.34,2.98-.56h0Z"/></g></g></svg>